<?xml version="1.0" encoding="UTF-8"?><svg xmlns="http://www.w3.org/2000/svg" viewBox="0 0 36 36">
 <g id="change1_1"><path d="m13.375 16.539l0.009 0.061-3.782-8.114c-0.286-0.611-1.148-0.814-1.925-0.451l-0.061 0.028c-0.68 0.317-1.071 0.963-0.964 1.53 0 0-1.275-1.147-2.024-0.797l-0.06 0.027c-0.749 0.35-1.123 1.136-0.833 1.757l0.533 1.192c-0.301-0.644-1.19-0.866-1.985-0.494l-0.062 0.029c-0.795 0.371-1.197 1.194-0.896 1.838l5.131 13.15 6.794 0.212 2.031-6.25-1.906-3.718zm20.478-5.231l-0.062-0.029c-0.796-0.372-1.685-0.15-1.985 0.494l0.533-1.192c0.29-0.621-0.084-1.408-0.832-1.757l-0.06-0.027c-0.749-0.35-1.591-0.129-1.882 0.492l-0.143 0.306c0.107-0.567-0.283-1.213-0.964-1.53l-0.062-0.028c-0.777-0.363-1.639-0.16-1.924 0.452l-3.771 8.088-0.033-0.114-2.021 4.52 3.353 6.392 6.195-4.463 4.554-9.766c0.301-0.644-0.102-1.467-0.896-1.838z" fill="#EF9645"/></g>
 <g id="change2_1"><path d="m35.809 15.672s0.653-1.043-0.454-1.558c-1.106-0.515-1.482 0.657-1.482 0.657l-2.39 5.142c-0.141-0.164-0.705-0.516-0.866-0.671l3.315-7.136s0.653-1.043-0.455-1.558c-1.107-0.514-1.483 0.657-1.483 0.657l-3.118 6.711c-0.175-0.099-0.63-0.327-0.812-0.423l3.616-7.781s0.652-1.043-0.455-1.558c-1.106-0.515-1.482 0.657-1.482 0.657l-3.618 7.78c-0.193-0.078-0.797-0.335-0.988-0.404l3.38-7.272s0.651-1.043-0.455-1.558c-1.108-0.515-1.483 0.657-1.483 0.657l-3.574 7.689-0.286 0.617-0.128 0.276c3.323 1.544 4.486 5.616 3.2 8.384-0.258 0.554-1.177 0.3-1.177 0.3 1.544-3.321 0.358-6.566-2.964-8.109l0.144-4.545s0.134-1.213-1.079-1.348c-1.215-0.134-1.349 1.08-1.349 1.08l-0.509 3.183c-0.203 1.262-0.431 2.525-0.81 3.746-1.066 3.447 0.551 7.238 3.915 8.803 3.669 1.705 8.027 0.112 9.732-3.556l0.257-0.556 3.858-8.306z" fill="#FFDC5D"/></g>
 <g id="change2_2"><path d="m0.192 15.672s-0.654-1.043 0.453-1.558c1.107-0.515 1.482 0.657 1.482 0.657l2.39 5.142c0.141-0.164 0.705-0.516 0.866-0.671l-3.315-7.136s-0.654-1.043 0.455-1.558c1.105-0.514 1.482 0.657 1.482 0.657l3.119 6.711c0.175-0.099 0.63-0.327 0.812-0.423l-3.615-7.78s-0.653-1.043 0.455-1.558c1.107-0.515 1.483 0.657 1.483 0.657l3.618 7.78c0.193-0.078 0.797-0.335 0.988-0.404l-3.38-7.272s-0.651-1.043 0.455-1.558c1.107-0.515 1.483 0.657 1.483 0.657l3.574 7.689 0.286 0.617 0.128 0.276c-3.323 1.544-4.486 5.616-3.2 8.384 0.258 0.554 1.177 0.3 1.177 0.3-1.544-3.321-0.358-6.566 2.963-8.109l-0.143-4.545s-0.134-1.213 1.078-1.348c1.215-0.134 1.35 1.08 1.35 1.08l0.508 3.183c0.203 1.262 0.432 2.525 0.811 3.746 1.067 3.447-0.552 7.238-3.916 8.803-3.669 1.705-8.027 0.112-9.732-3.556l-0.256-0.556-3.859-8.307z" fill="#FFDC5D"/></g>
</svg>